<svg xmlns="http://www.w3.org/2000/svg" xmlns:xlink="http://www.w3.org/1999/xlink" version="1.1" x="0px" y="0px" viewBox="145 347 100 125" style="enable-background:new 145 347 100 100;" xml:space="preserve"><path d="M199.9,375.7c7.1-2.3,10.9-9.9,8.6-17c-2.3-7-9.9-10.9-17-8.6c-7.1,2.3-10.9,9.9-8.6,17C185.2,374.2,192.8,378,199.9,375.7z  "/><path d="M189.8,418.3c-7.1,2.3-10.9,9.9-8.6,17c2.3,7,9.9,10.9,17,8.6c7.1-2.3,10.9-9.9,8.6-17C204.5,419.8,196.9,416,189.8,418.3z"/><path d="M206.6,390.3C206.6,390.3,206.6,390.3,206.6,390.3c-0.2,0-0.4,0.1-0.6,0.1c-0.1,0-0.2,0-0.3,0.1c-0.1,0-0.2,0.1-0.3,0.1  c-0.1,0-0.2,0.1-0.3,0.1c-0.1,0-0.2,0.1-0.4,0.1c-0.1,0-0.2,0.1-0.3,0.1c-0.2,0.1-0.3,0.1-0.4,0.2c0,0-0.1,0-0.1,0.1  c-3.1,1.3-5.6,3.6-7,6.6c-2.1,4.3-5.9,7.7-10.5,9.2l0,0l0,0c-2.6,0.9-5.3,1.1-7.9,0.7c-2.1-0.3-4.1-0.9-6-1.9  c-3.4-1.8-7.4-2.1-11-0.7c-6.6,2.4-10.2,9.6-8.3,16.3c1,3.6,3.4,6.5,6.6,8.2c3.3,1.7,7,2,10.5,0.9c3.6-1.2,6.4-3.7,8-7.1  c2-4.2,5.8-7.5,10.4-9.1c4.6-1.5,9.6-1.1,13.7,1.1c3.3,1.8,7.1,2.1,10.6,1c3.5-1.2,6.3-3.6,8-7s1.8-7.1,0.5-10.5  C219.4,392.7,212.9,389.2,206.6,390.3z"/><path d="M236.4,371.6c-2.4-6.5-9.6-10.1-16.3-8.2c-3.7,1.1-6.8,3.6-8.5,7.1c-2.1,4.3-5.9,7.7-10.5,9.2s-9.6,1.1-13.9-1.2  c-3.4-1.8-7.4-2.1-11-0.7c-6.6,2.4-10.2,9.6-8.3,16.3c1,3.6,3.4,6.5,6.6,8.2c1.6,0.9,3.3,1.3,5.1,1.5c1.8,0.2,3.7-0.1,5.4-0.6h0  c1.8-0.6,3.5-1.6,4.9-2.9c1.3-1.2,2.3-2.6,3.1-4.2c1.8-3.9,5.1-6.9,9.2-8.6c0.1,0,0.1-0.1,0.2-0.1c0.2-0.1,0.4-0.2,0.6-0.2  c0.1,0,0.2-0.1,0.3-0.1c0,0,0.1,0,0.1,0c0.1,0,0.2-0.1,0.3-0.1c0.1,0,0.2-0.1,0.3-0.1c0,0,0.1,0,0.1,0c0.1,0,0.3-0.1,0.4-0.1  c0.1,0,0.3-0.1,0.4-0.1c0.2,0,0.4-0.1,0.6-0.1c0.1,0,0.1,0,0.2,0c3.9-0.7,8-0.1,11.4,1.7c3.3,1.8,7.1,2.1,10.6,1  c3.5-1.2,6.3-3.6,8-7C237.5,378.8,237.7,375,236.4,371.6z"/><text x="145" y="462" fill="#000000" font-size="5px" font-weight="bold" font-family="'Helvetica Neue', Helvetica, Arial-Unicode, Arial, Sans-serif">Created by IronSV</text><text x="145" y="467" fill="#000000" font-size="5px" font-weight="bold" font-family="'Helvetica Neue', Helvetica, Arial-Unicode, Arial, Sans-serif">from the Noun Project</text></svg>